<svg width="60" height="60" viewBox="0 0 60 60" fill="none" xmlns="http://www.w3.org/2000/svg">
<path d="M53.8324 17.7793C53.8705 18.3122 53.8705 18.8453 53.8705 19.3783C53.8705 35.6345 41.4975 54.3655 18.8832 54.3655C11.9162 54.3655 5.44418 52.3477 0 48.8453C0.989883 48.9594 1.94156 48.9975 2.96953 48.9975C8.71816 48.9975 14.0101 47.056 18.236 43.7438C12.8299 43.6295 8.29945 40.0889 6.73852 35.2158C7.5 35.33 8.26137 35.4061 9.06094 35.4061C10.165 35.4061 11.2691 35.2538 12.297 34.9874C6.66246 33.8452 2.43645 28.896 2.43645 22.9189V22.7666C4.07344 23.6803 5.97715 24.2514 7.99477 24.3275C4.68258 22.1193 2.51262 18.3503 2.51262 14.0863C2.51262 11.8021 3.12164 9.7082 4.1877 7.88078C10.241 15.3427 19.34 20.2157 29.543 20.7488C29.3527 19.8351 29.2384 18.8834 29.2384 17.9316C29.2384 11.1549 34.7207 5.63464 41.5354 5.63464C45.0759 5.63464 48.2739 7.11941 50.5201 9.51789C53.2992 8.98492 55.9642 7.95695 58.3247 6.54835C57.4109 9.40375 55.4693 11.8022 52.9186 13.325C55.3932 13.0586 57.7917 12.3732 59.9998 11.4215C58.3249 13.8579 56.2309 16.0279 53.8324 17.7793Z" fill="white"/>
</svg>
