<svg width="68" height="60" viewBox="0 0 68 60" fill="none" xmlns="http://www.w3.org/2000/svg">
<path d="M64.4356 14.541C63.705 11.7695 61.5524 9.58676 58.8192 8.84602C53.8652 7.5 34 7.5 34 7.5C34 7.5 14.135 7.5 9.18081 8.84602C6.44765 9.58687 4.29504 11.7695 3.56444 14.541C2.237 19.5645 2.237 30.0455 2.237 30.0455C2.237 30.0455 2.237 40.5265 3.56444 45.55C4.29504 48.3214 6.44765 50.4132 9.18081 51.154C14.135 52.5 34 52.5 34 52.5C34 52.5 53.865 52.5 58.8192 51.154C61.5524 50.4132 63.705 48.3214 64.4356 45.55C65.763 40.5265 65.763 30.0455 65.763 30.0455C65.763 30.0455 65.763 19.5645 64.4356 14.541ZM27.503 39.5614V20.5295L44.1063 30.0457L27.503 39.5614Z" fill="white"/>
</svg>
